<mxfile host="app.diagrams.net" modified="2023-09-07T07:10:52.838Z" agent="Mozilla/5.0 (Macintosh; Intel Mac OS X 10_15_7) AppleWebKit/537.36 (KHTML, like Gecko) Chrome/116.0.0.0 Safari/537.36" version="21.4.0" etag="0wZfkTvXV83Ds3Qc701g" type="github">
  <diagram name="第 1 页" id="uQ2XquKf2iQMxZI9t2FS">
    <mxGraphModel>
      <root>
        <mxCell id="0" />
        <mxCell id="1" parent="0" />
      </root>
    </mxGraphModel>
  </diagram>
</mxfile>
